<svg width="66" height="65" viewBox="0 0 66 65" fill="none" xmlns="http://www.w3.org/2000/svg">
<path d="M58.99 34.4153L40.0317 53.3736C39.5035 53.9018 38.8103 54.1671 38.1169 54.1671C37.4236 54.1671 36.7304 53.9018 36.2022 53.3736C35.1433 52.3147 35.1433 50.6029 36.2022 49.5439L50.5374 35.2088H8.32528C6.82757 35.2088 5.61694 33.9981 5.61694 32.5004C5.61694 31.0027 6.82757 29.7921 8.32528 29.7921H50.5374L36.2022 15.457C35.1433 14.398 35.1433 12.6862 36.2022 11.6272C37.2612 10.5683 38.9727 10.5683 40.0317 11.6272L58.99 30.5856C60.049 31.6445 60.049 33.3564 58.99 34.4153Z" fill="white"/>
</svg>
