<svg width="50" height="50" viewBox="0 0 50 50" fill="none" xmlns="http://www.w3.org/2000/svg">
<path d="M35.4166 6.25033C35.4166 5.09824 34.4833 4.16699 33.3333 4.16699C32.1833 4.16699 31.25 5.09824 31.25 6.25033H18.75C18.75 5.09824 17.8166 4.16699 16.6666 4.16699C15.5166 4.16699 14.5833 5.09824 14.5833 6.25033C8.83954 6.25033 4.16663 10.9232 4.16663 16.667V35.417C4.16663 41.1607 8.83954 45.8337 14.5833 45.8337H35.4166C41.1604 45.8337 45.8333 41.1607 45.8333 35.417V16.667C45.8333 10.9232 41.1604 6.25033 35.4166 6.25033ZM14.5833 10.417V12.5003C14.5833 13.6524 15.5166 14.5837 16.6666 14.5837C17.8166 14.5837 18.75 13.6524 18.75 12.5003V10.417H31.25V12.5003C31.25 13.6524 32.1833 14.5837 33.3333 14.5837C34.4833 14.5837 35.4166 13.6524 35.4166 12.5003V10.417C38.8625 10.417 41.6666 13.2212 41.6666 16.667H8.33329C8.33329 13.2212 11.1375 10.417 14.5833 10.417ZM35.4166 41.667H14.5833C11.1375 41.667 8.33329 38.8628 8.33329 35.417V20.8337H41.6666V35.417C41.6666 38.8628 38.8625 41.667 35.4166 41.667ZM35.4166 27.0837C35.4166 28.2337 34.4833 29.167 33.3333 29.167C32.1833 29.167 31.25 28.2337 31.25 27.0837C31.25 25.9337 32.1833 25.0003 33.3333 25.0003C34.4833 25.0003 35.4166 25.9337 35.4166 27.0837ZM27.0833 27.0837C27.0833 28.2337 26.15 29.167 25 29.167C23.85 29.167 22.9166 28.2337 22.9166 27.0837C22.9166 25.9337 23.85 25.0003 25 25.0003C26.15 25.0003 27.0833 25.9337 27.0833 27.0837ZM18.75 27.0837C18.75 28.2337 17.8166 29.167 16.6666 29.167C15.5166 29.167 14.5833 28.2337 14.5833 27.0837C14.5833 25.9337 15.5166 25.0003 16.6666 25.0003C17.8166 25.0003 18.75 25.9337 18.75 27.0837ZM35.4166 35.417C35.4166 36.567 34.4833 37.5003 33.3333 37.5003C32.1833 37.5003 31.25 36.567 31.25 35.417C31.25 34.267 32.1833 33.3337 33.3333 33.3337C34.4833 33.3337 35.4166 34.267 35.4166 35.417ZM27.0833 35.417C27.0833 36.567 26.15 37.5003 25 37.5003C23.85 37.5003 22.9166 36.567 22.9166 35.417C22.9166 34.267 23.85 33.3337 25 33.3337C26.15 33.3337 27.0833 34.267 27.0833 35.417ZM18.75 35.417C18.75 36.567 17.8166 37.5003 16.6666 37.5003C15.5166 37.5003 14.5833 36.567 14.5833 35.417C14.5833 34.267 15.5166 33.3337 16.6666 33.3337C17.8166 33.3337 18.75 34.267 18.75 35.417Z" fill="white"/>
</svg>
