<svg width="65" height="65" viewBox="0 0 65 65" fill="none" xmlns="http://www.w3.org/2000/svg">
<path d="M45.2481 25.1683C46.307 26.2273 46.307 27.9391 45.2481 28.998L31.7064 42.5397C31.1783 43.0678 30.485 43.3332 29.7916 43.3332C29.0983 43.3332 28.405 43.0678 27.8768 42.5397L19.7518 34.4147C18.6929 33.3558 18.6929 31.6439 19.7518 30.585C20.8108 29.526 22.5225 29.526 23.5814 30.585L29.7916 36.7954L41.4185 25.1683C42.4775 24.1093 44.1891 24.1093 45.2481 25.1683ZM59.5833 32.4998C59.5833 47.4336 47.4337 59.5832 32.5 59.5832C17.5662 59.5832 5.41663 47.4336 5.41663 32.4998C5.41663 17.5661 17.5662 5.4165 32.5 5.4165C47.4337 5.4165 59.5833 17.5661 59.5833 32.4998ZM54.1666 32.4998C54.1666 20.5534 44.4464 10.8332 32.5 10.8332C20.5535 10.8332 10.8333 20.5534 10.8333 32.4998C10.8333 44.4463 20.5535 54.1665 32.5 54.1665C44.4464 54.1665 54.1666 44.4463 54.1666 32.4998Z" fill="#161819"/>
</svg>
