<svg width="100" height="100" viewBox="0 0 100 100" fill="none" xmlns="http://www.w3.org/2000/svg">
<path d="M50.0002 8.33337C27.0252 8.33337 8.3335 27.025 8.3335 50C8.3335 72.975 27.0252 91.6667 50.0002 91.6667C72.9752 91.6667 91.6668 72.975 91.6668 50C91.6668 27.025 72.9752 8.33337 50.0002 8.33337ZM50.0002 83.3334C31.621 83.3334 16.6668 68.3792 16.6668 50C16.6668 31.6209 31.621 16.6667 50.0002 16.6667C68.3793 16.6667 83.3335 31.6209 83.3335 50C83.3335 68.3792 68.3793 83.3334 50.0002 83.3334ZM65.4459 51.2207C67.075 52.8499 67.075 55.4835 65.4459 57.1127C64.6334 57.9252 63.5668 58.3334 62.5002 58.3334C61.4335 58.3334 60.367 57.9252 59.5545 57.1127L50.0002 47.5586L40.4459 57.1127C38.8167 58.7418 36.1836 58.7418 34.5545 57.1127C32.9253 55.4835 32.9253 52.8499 34.5545 51.2207L47.0545 38.7207C48.6836 37.0916 51.3167 37.0916 52.9459 38.7207L65.4459 51.2207Z" fill="#C5CACD"/>
</svg>
