<svg width="50" height="50" viewBox="0 0 50 50" fill="none" xmlns="http://www.w3.org/2000/svg">
<path d="M35.4166 8.33301H14.5833C8.83954 8.33301 4.16663 13.0059 4.16663 18.7497V31.2497C4.16663 36.9934 8.83954 41.6663 14.5833 41.6663H35.4166C41.1604 41.6663 45.8333 36.9934 45.8333 31.2497V18.7497C45.8333 13.0059 41.1604 8.33301 35.4166 8.33301ZM41.6666 31.2497C41.6666 34.6955 38.8625 37.4997 35.4166 37.4997H14.5833C11.1375 37.4997 8.33329 34.6955 8.33329 31.2497V22.9163H41.6666V31.2497ZM8.33329 18.7497C8.33329 15.3038 11.1375 12.4997 14.5833 12.4997H35.4166C38.8625 12.4997 41.6666 15.3038 41.6666 18.7497H8.33329ZM12.5 31.2497C12.5 30.0976 13.4333 29.1663 14.5833 29.1663H20.8333C21.9833 29.1663 22.9166 30.0976 22.9166 31.2497C22.9166 32.4018 21.9833 33.333 20.8333 33.333H14.5833C13.4333 33.333 12.5 32.4018 12.5 31.2497Z" fill="white"/>
</svg>
