<svg width="90" height="90" viewBox="0 0 90 90" fill="none" xmlns="http://www.w3.org/2000/svg">
<path d="M78.6449 35.7053L76.4738 33.5331C75.7613 32.8204 75.3676 31.8718 75.3676 30.8591V27.8054C75.3676 20.5435 69.4613 14.6394 62.205 14.6394H59.1488C58.14 14.6394 57.1912 14.2496 56.475 13.5294L54.3038 11.3614C49.1738 6.22623 40.8189 6.22623 35.6889 11.3614L33.5175 13.5294C32.805 14.2459 31.8563 14.6394 30.8475 14.6394H27.795C20.535 14.6394 14.6324 20.5435 14.6324 27.8054V30.8591C14.6324 31.8718 14.2387 32.8167 13.5262 33.5331L11.3587 35.7053C8.86872 38.1885 7.5 41.4967 7.5 45.0114C7.5 48.5261 8.86881 51.8343 11.3551 54.3175L13.5262 56.4897C14.2387 57.2024 14.6324 58.151 14.6324 59.1638V62.2174C14.6324 69.4793 20.5387 75.3835 27.795 75.3835H30.8475C31.8563 75.3835 32.8051 75.7732 33.5213 76.4934L35.6925 78.6615C38.2575 81.2309 41.6287 82.51 45 82.51C48.3713 82.51 51.7425 81.2272 54.3075 78.6615L56.4787 76.4934C57.1912 75.7769 58.14 75.3835 59.1488 75.3835H62.205C69.4613 75.3835 75.3676 69.4793 75.3676 62.2174V59.1638C75.3676 58.151 75.7613 57.2061 76.4738 56.4897L78.6449 54.3175C81.1312 51.8306 82.5 48.5261 82.5 45.0114C82.5 41.4967 81.1312 38.1885 78.6449 35.7053ZM73.3424 49.0138L71.1676 51.1856C69.0376 53.3161 67.8676 56.1517 67.8676 59.1638V62.2174C67.8676 65.3382 65.3288 67.8815 62.205 67.8815H59.1488C56.1338 67.8815 53.3025 69.0554 51.1725 71.1897L49.0013 73.3578C46.7926 75.5634 43.2001 75.5634 40.9914 73.3578L38.8239 71.1897C36.6939 69.0591 33.8588 67.8815 30.8475 67.8815H27.795C24.6712 67.8815 22.1324 65.3382 22.1324 62.2174V59.1638C22.1324 56.1517 20.9624 53.3161 18.8324 51.1856L16.6576 49.0138C15.5888 47.9448 15 46.5231 15 45.0114C15 43.4998 15.5887 42.0781 16.6612 41.009L18.8324 38.8373C20.9624 36.7067 22.1324 33.8711 22.1324 30.8591V27.8054C22.1324 24.6846 24.675 22.1414 27.795 22.1414H30.8475C33.8625 22.1414 36.6939 20.9675 38.8239 18.8331L40.995 16.6651C43.2038 14.4595 46.7962 14.4595 49.005 16.6651L51.1725 18.8331C53.3025 20.9637 56.1375 22.1414 59.1488 22.1414H62.205C65.3288 22.1414 67.8676 24.6846 67.8676 27.8054V30.8591C67.8676 33.8711 69.0376 36.7067 71.1676 38.8373L73.3424 41.009C74.4112 42.0781 75 43.4998 75 45.0114C75 46.5231 74.4112 47.9448 73.3424 49.0138ZM58.9011 31.1063C60.3674 32.573 60.3674 34.9438 58.9011 36.4105L36.4011 58.9165C35.6699 59.6479 34.71 60.0154 33.75 60.0154C32.79 60.0154 31.8301 59.6479 31.0989 58.9165C29.6326 57.4499 29.6326 55.079 31.0989 53.6123L53.5989 31.1063C55.0651 29.6397 57.4349 29.6397 58.9011 31.1063ZM60 54.3889C60 57.4948 57.48 60.0154 54.375 60.0154C51.27 60.0154 48.75 57.4948 48.75 54.3889C48.75 51.2831 51.27 48.7624 54.375 48.7624C57.48 48.7624 60 51.2831 60 54.3889ZM30 35.6339C30 32.5281 32.52 30.0074 35.625 30.0074C38.73 30.0074 41.25 32.5281 41.25 35.6339C41.25 38.7397 38.73 41.2604 35.625 41.2604C32.52 41.2604 30 38.7397 30 35.6339Z" fill="white"/>
</svg>
