<svg width="150" height="150" viewBox="0 0 150 150" fill="none" xmlns="http://www.w3.org/2000/svg">
<path d="M75 12.5C40.5375 12.5 12.5 40.5375 12.5 75C12.5 109.463 40.5375 137.5 75 137.5C109.463 137.5 137.5 109.463 137.5 75C137.5 40.5375 109.463 12.5 75 12.5ZM75 125C47.4313 125 25 102.569 25 75C25 47.4313 47.4313 25 75 25C102.569 25 125 47.4313 125 75C125 102.569 102.569 125 75 125ZM81.25 100C81.25 103.45 78.45 106.25 75 106.25C71.55 106.25 68.75 103.45 68.75 100C68.75 96.55 71.55 93.75 75 93.75C78.45 93.75 81.25 96.55 81.25 100ZM81.25 50V75C81.25 78.4562 78.45 81.25 75 81.25C71.55 81.25 68.75 78.4562 68.75 75V50C68.75 46.5438 71.55 43.75 75 43.75C78.45 43.75 81.25 46.5438 81.25 50Z" fill="#F45943"/>
</svg>
