<svg width="70" height="70" viewBox="0 0 70 70" fill="none" xmlns="http://www.w3.org/2000/svg">
<path d="M62.5474 29.1263C60.9228 26.4196 58.2773 22.7883 54.6198 19.4983L60.389 13.7294C61.5294 12.5919 61.5294 10.7455 60.389 9.60507C59.2486 8.46465 57.4052 8.46465 56.2648 9.60507L25.7478 40.1222L25.7419 40.1279L9.59813 56.2717C8.45771 57.4122 8.45771 59.2557 9.59813 60.3961C10.1669 60.9648 10.9135 61.2506 11.6602 61.2506C12.4069 61.2506 13.1536 60.9648 13.7223 60.3961L20.0428 54.0753C24.6482 56.9016 29.6678 58.3339 34.9994 58.3339C49.784 58.3339 58.6011 47.402 62.5503 40.8745C64.7145 37.252 64.7144 32.7546 62.5474 29.1263ZM42.2852 35.0034C42.2852 39.0255 39.0127 42.2951 34.9935 42.2951C34.066 42.2951 33.1707 42.1112 32.3365 41.7845L41.7719 32.3492C42.1015 33.1804 42.2852 34.0759 42.2852 35.0034ZM57.5481 37.8678C54.2436 43.3336 46.9198 52.5034 34.9994 52.5034C31.2369 52.5034 27.664 51.579 24.3273 49.794L28.0315 46.0897C30.0936 47.3993 32.4765 48.1284 34.9935 48.1284C42.2298 48.1284 48.1185 42.2397 48.1185 35.0034C48.1185 32.4863 47.3895 30.1035 46.0799 28.0415L50.4899 23.6312C53.739 26.4895 56.1074 29.7241 57.5453 32.1245C58.5895 33.8716 58.5894 36.1353 57.5481 37.8678ZM11.4852 46.5095C10.0036 44.7508 8.64734 42.8609 7.45442 40.8834C5.28442 37.2521 5.28438 32.7519 7.44855 29.1324C11.3977 22.6019 20.2119 11.6701 34.9994 11.6701C37.8519 11.6701 40.614 12.0814 43.4461 12.9301C44.989 13.3909 45.8669 15.0185 45.4031 16.5585C44.9394 18.1014 43.3177 18.9793 41.7719 18.5185C39.4911 17.836 37.2744 17.5034 34.9965 17.5034C23.0732 17.5034 15.7494 26.6733 12.4478 32.1391C11.4094 33.8745 11.4094 36.1352 12.4536 37.8852C13.4831 39.5885 14.6557 41.2277 15.939 42.7473C16.9773 43.981 16.8228 45.8212 15.5919 46.8567C15.0436 47.3204 14.3756 47.5452 13.7106 47.5452C12.8852 47.5452 12.0627 47.192 11.4852 46.5095ZM32.9432 22.0593C34.527 21.8347 36.0261 22.905 36.2711 24.4946C36.5161 26.0871 35.4253 27.5803 33.8357 27.8253C30.7645 28.3008 28.2882 30.7773 27.8128 33.8456C27.5911 35.2864 26.3486 36.319 24.934 36.319C24.7853 36.319 24.6365 36.3071 24.4848 36.2837C22.8923 36.0387 21.8015 34.5483 22.0465 32.9558C22.9186 27.3092 27.2965 22.9314 32.9432 22.0593Z" fill="#C5CACD"/>
</svg>
