<svg width="100" height="100" viewBox="0 0 100 100" fill="none" xmlns="http://www.w3.org/2000/svg">
<path d="M58.5348 38.5352L47.07 50L58.5348 61.4648C60.4898 63.4198 60.4898 66.5802 58.5348 68.5352C57.5598 69.5102 56.28 70 55 70C53.72 70 52.4401 69.5102 51.4651 68.5352L36.4651 53.5352C34.5101 51.5802 34.5101 48.4198 36.4651 46.4648L51.4651 31.4648C53.4201 29.5098 56.5798 29.5098 58.5348 31.4648C60.4898 33.4198 60.4898 36.5802 58.5348 38.5352ZM100 50C100 77.57 77.57 100 50 100C22.43 100 0 77.57 0 50C0 22.43 22.43 0 50 0C77.57 0 100 22.43 100 50ZM90 50C90 27.945 72.055 10 50 10C27.945 10 10 27.945 10 50C10 72.055 27.945 90 50 90C72.055 90 90 72.055 90 50Z" fill="white"/>
</svg>
