<svg width="90" height="90" viewBox="0 0 90 90" fill="none" xmlns="http://www.w3.org/2000/svg">
<path d="M76.137 16.6425C71.2807 10.7475 64.5232 7.5 57.1057 7.5C52.8307 7.5 48.6944 8.50134 45.0007 10.4063C41.3107 8.50134 37.1707 7.5 32.8957 7.5C25.4782 7.5 18.7206 10.7475 13.8644 16.6425C8.60314 23.0287 6.4207 31.7473 8.02195 39.9673C11.7495 59.0736 31.092 72.3523 39.237 77.1748C41.0145 78.2211 43.0057 78.75 44.9969 78.75C46.9882 78.75 48.9832 78.2212 50.7607 77.1712C58.9057 72.3524 78.2481 59.0736 81.9756 39.9673C83.5806 31.7473 81.3982 23.0287 76.137 16.6425ZM74.6144 38.5277C71.4682 54.6527 54.2145 66.409 46.9432 70.714C45.7469 71.4189 44.2544 71.4189 43.0582 70.714C35.7869 66.409 18.5294 54.6527 15.3869 38.5277C14.2094 32.4864 15.8032 26.0849 19.6582 21.4087C23.0632 17.2724 27.7657 15 32.8995 15C36.537 15 40.0245 16.0012 42.9832 17.8912C44.2132 18.675 45.7882 18.675 47.0182 17.8912C49.9807 16.0012 53.4644 15 57.1019 15C62.2394 15 66.9419 17.2724 70.3432 21.4087C74.1982 26.0849 75.7957 32.4864 74.6144 38.5277Z" fill="white"/>
</svg>
