<svg width="80" height="80" viewBox="0 0 80 80" fill="none" xmlns="http://www.w3.org/2000/svg">
<path d="M67.1167 23.7334L50.4501 10.3316C44.3967 5.46302 35.6068 5.46302 29.5501 10.3316L12.8834 23.7334C8.93343 26.9114 6.66675 31.6436 6.66675 36.7123V56.6934C6.66675 65.8771 14.1434 73.3468 23.3334 73.3468H33.3334V56.6902C33.3334 53.0187 36.3234 50.0375 40.0001 50.0375C43.6767 50.0375 46.6667 53.022 46.6667 56.6902V73.3468H56.6667C65.8567 73.3468 73.3334 65.8771 73.3334 56.6934V36.7123C73.3334 31.6436 71.0667 26.9114 67.1167 23.7334ZM66.6667 56.6934C66.6667 62.199 62.1801 66.6775 56.6667 66.6775H53.3334V56.6902C53.3334 49.3439 47.3534 43.3682 40.0001 43.3682C32.6467 43.3682 26.6667 49.3439 26.6667 56.6902V66.6775H23.3334C17.8201 66.6775 13.3334 62.199 13.3334 56.6934V36.7123C13.3334 33.6744 14.6934 30.8365 17.0601 28.9325L33.7267 15.5303C37.3634 12.6091 42.6401 12.6091 46.2734 15.5303L62.9401 28.9325C65.3101 30.8365 66.6701 33.6744 66.6701 36.7123V56.6934H66.6667Z" fill="#5C646B"/>
</svg>
