<svg width="71" height="71" viewBox="0 0 71 71" fill="none" xmlns="http://www.w3.org/2000/svg">
<path d="M35.5001 5.91699C19.1878 5.91699 5.91675 19.1881 5.91675 35.5003C5.91675 51.8126 19.1878 65.0837 35.5001 65.0837C51.8123 65.0837 65.0834 51.8126 65.0834 35.5003C65.0834 19.1881 51.8123 5.91699 35.5001 5.91699ZM35.5001 59.167C22.4509 59.167 11.8334 48.5495 11.8334 35.5003C11.8334 22.4511 22.4509 11.8337 35.5001 11.8337C48.5493 11.8337 59.1668 22.4511 59.1668 35.5003C59.1668 48.5495 48.5493 59.167 35.5001 59.167ZM38.4584 23.667C38.4584 25.3 37.1331 26.6253 35.5001 26.6253C33.8671 26.6253 32.5417 25.3 32.5417 23.667C32.5417 22.034 33.8671 20.7087 35.5001 20.7087C37.1331 20.7087 38.4584 22.034 38.4584 23.667ZM38.4584 35.5003V47.3337C38.4584 48.9696 37.1331 50.292 35.5001 50.292C33.8671 50.292 32.5417 48.9696 32.5417 47.3337V35.5003C32.5417 33.8644 33.8671 32.542 35.5001 32.542C37.1331 32.542 38.4584 33.8644 38.4584 35.5003Z" fill="white"/>
</svg>
