<svg width="318" height="322" viewBox="0 0 318 322" fill="none" xmlns="http://www.w3.org/2000/svg">
<path d="M318 160.879C318 248.692 246.813 319.879 159 319.879C71.1868 319.879 0 248.692 0 160.879C0 73.0656 71.1868 1.87891 159 1.87891C246.813 1.87891 318 73.0656 318 160.879ZM28.879 160.879C28.879 232.742 87.1361 290.999 159 290.999C230.864 290.999 289.121 232.742 289.121 160.879C289.121 89.0148 230.864 30.7578 159 30.7578C87.1361 30.7578 28.879 89.0148 28.879 160.879Z" fill="#404040"/>
<path d="M297 118C311 114.323 311.202 114.199 308.485 106.701C303.032 91.6563 295.33 77.4941 285.617 64.7067C272.988 48.0792 257.207 34.1018 239.175 23.5731C221.144 13.0443 201.216 6.17009 180.528 3.34304C164.618 1.16888 148.498 1.42106 132.716 4.06646C124.851 5.38473 126.998 4.99163 129.5 19C132 33 132.191 33.3001 140.081 32.1407C152.167 30.3645 164.467 30.2956 176.618 31.9562C193.548 34.2697 209.857 39.8954 224.613 48.5116C239.37 57.1282 252.284 68.5669 262.62 82.1745C270.038 91.9406 276.023 102.686 280.416 114.085C283.284 121.526 283.5 121.546 297 118Z" fill="#C5CACD"/>
</svg>
