<svg width="100" height="100" viewBox="0 0 100 100" fill="none" xmlns="http://www.w3.org/2000/svg">
<path d="M70.8332 39.2666V29.1668C70.8332 17.6793 61.4873 8.3335 49.9998 8.3335C38.5123 8.3335 29.1665 17.6793 29.1665 29.1668V39.2666C21.8207 42.4916 16.6665 49.8127 16.6665 58.3335V70.8335C16.6665 82.321 26.0123 91.6668 37.4998 91.6668H62.4998C73.9873 91.6668 83.3332 82.321 83.3332 70.8335V58.3335C83.3332 49.8127 78.179 42.4916 70.8332 39.2666ZM37.4998 29.1668C37.4998 22.2752 43.1082 16.6668 49.9998 16.6668C56.8915 16.6668 62.4998 22.2752 62.4998 29.1668V37.5002H37.4998V29.1668ZM74.9998 70.8335C74.9998 77.7252 69.3915 83.3335 62.4998 83.3335H37.4998C30.6082 83.3335 24.9998 77.7252 24.9998 70.8335V58.3335C24.9998 51.4418 30.6082 45.8335 37.4998 45.8335H62.4998C69.3915 45.8335 74.9998 51.4418 74.9998 58.3335V70.8335ZM54.1665 62.5002V66.6668C54.1665 68.971 52.2998 70.8335 49.9998 70.8335C47.6998 70.8335 45.8332 68.971 45.8332 66.6668V62.5002C45.8332 60.196 47.6998 58.3335 49.9998 58.3335C52.2998 58.3335 54.1665 60.196 54.1665 62.5002Z" fill="white"/>
</svg>
