<svg width="66" height="65" viewBox="0 0 66 65" fill="none" xmlns="http://www.w3.org/2000/svg">
<path d="M35.2357 56.8748C35.2357 58.3725 34.0223 59.5832 32.5273 59.5832H21.694C14.2271 59.5832 8.15234 53.5084 8.15234 46.0415V18.9582C8.15234 11.4913 14.2271 5.4165 21.694 5.4165H32.5273C34.0223 5.4165 35.2357 6.62713 35.2357 8.12484C35.2357 9.62255 34.0223 10.8332 32.5273 10.8332H21.694C17.2144 10.8332 13.569 14.4786 13.569 18.9582V46.0415C13.569 50.5211 17.2144 54.1665 21.694 54.1665H32.5273C34.0223 54.1665 35.2357 55.3771 35.2357 56.8748ZM56.6911 33.5343C56.9646 32.8735 56.9646 32.1262 56.6911 31.4654C56.553 31.1322 56.3552 30.8342 56.1034 30.5823L45.2727 19.7516C44.2138 18.6927 42.5021 18.6927 41.4432 19.7516C40.3842 20.8106 40.3842 22.5224 41.4432 23.5814L47.6534 29.7915H27.108C25.613 29.7915 24.3996 31.0021 24.3996 32.4998C24.3996 33.9975 25.613 35.2082 27.108 35.2082H47.6534L41.4432 41.4183C40.3842 42.4773 40.3842 44.1891 41.4432 45.2481C41.9713 45.7762 42.6646 46.0415 43.358 46.0415C44.0513 46.0415 44.7446 45.7762 45.2727 45.2481L56.1034 34.4174C56.3552 34.1655 56.5557 33.8674 56.6911 33.5343Z" fill="#161819"/>
</svg>
