<svg width="65" height="65" viewBox="0 0 65 65" fill="none" xmlns="http://www.w3.org/2000/svg">
<path d="M56.875 18.9582V46.0415C56.875 53.5084 50.8002 59.5832 43.3333 59.5832H32.5C31.005 59.5832 29.7917 58.3725 29.7917 56.8748C29.7917 55.3771 31.005 54.1665 32.5 54.1665H43.3333C47.8129 54.1665 51.4583 50.5211 51.4583 46.0415V18.9582C51.4583 14.4786 47.8129 10.8332 43.3333 10.8332H32.5C31.005 10.8332 29.7917 9.62255 29.7917 8.12484C29.7917 6.62713 31.005 5.4165 32.5 5.4165H43.3333C50.8002 5.4165 56.875 11.4913 56.875 18.9582ZM40.4165 33.5343C40.69 32.8735 40.69 32.1262 40.4165 31.4654C40.2783 31.1322 40.0806 30.8342 39.8287 30.5823L28.9981 19.7516C27.9392 18.6927 26.2275 18.6927 25.1685 19.7516C24.1096 20.8106 24.1096 22.5224 25.1685 23.5814L31.3787 29.7915H10.8333C9.33833 29.7915 8.125 31.0021 8.125 32.4998C8.125 33.9975 9.33833 35.2082 10.8333 35.2082H31.3787L25.1685 41.4183C24.1096 42.4772 24.1096 44.1891 25.1685 45.248C25.6967 45.7762 26.39 46.0415 27.0833 46.0415C27.7767 46.0415 28.47 45.7762 28.9981 45.248L39.8287 34.4174C40.0806 34.1655 40.2783 33.8674 40.4165 33.5343Z" fill="#161819"/>
</svg>
