<svg width="50" height="50" viewBox="0 0 50 50" fill="none" xmlns="http://www.w3.org/2000/svg">
<path d="M22.9167 26.8838V35.417C22.9167 36.5691 23.85 37.5003 25 37.5003C26.15 37.5003 27.0834 36.5691 27.0834 35.417V26.8838C32.4084 25.9004 36.4584 21.2295 36.4584 15.6253C36.4584 9.30866 31.3188 4.16699 25 4.16699C18.6813 4.16699 13.5417 9.30866 13.5417 15.6253C13.5417 21.2295 17.5917 25.9004 22.9167 26.8838ZM25 8.33366C29.0209 8.33366 32.2917 11.6045 32.2917 15.6253C32.2917 19.6462 29.0209 22.917 25 22.917C20.9792 22.917 17.7084 19.6462 17.7084 15.6253C17.7084 11.6045 20.9792 8.33366 25 8.33366ZM41.6667 37.5003C41.6667 42.9712 33.2834 45.8337 25 45.8337C16.7167 45.8337 8.33337 42.9712 8.33337 37.5003C8.33337 33.9545 12.073 31.0796 18.3375 29.813C19.4667 29.5796 20.5646 30.315 20.7917 31.4421C21.0209 32.5692 20.2917 33.6691 19.1625 33.8982C14.6167 34.817 12.5 36.592 12.5 37.5003C12.5 38.9691 17.2459 41.667 25 41.667C32.7542 41.667 37.5 38.9691 37.5 37.5003C37.5 36.5899 35.3813 34.817 30.8375 33.8982C29.7084 33.6712 28.9792 32.5692 29.2084 31.4421C29.4354 30.3129 30.5417 29.5796 31.6625 29.813C37.9271 31.0796 41.6667 33.9545 41.6667 37.5003Z" fill="white"/>
</svg>
