<svg width="100" height="100" viewBox="0 0 100 100" fill="none" xmlns="http://www.w3.org/2000/svg">
<path d="M50.0023 24.9977C40.8106 24.9977 33.3356 32.4727 33.3356 41.6644C33.3356 50.8561 40.8106 58.3311 50.0023 58.3311C59.1939 58.3311 66.6689 50.8561 66.6689 41.6644C66.6689 32.4727 59.1939 24.9977 50.0023 24.9977ZM50.0023 49.9977C45.4064 49.9977 41.6689 46.2602 41.6689 41.6644C41.6689 37.0686 45.4064 33.3311 50.0023 33.3311C54.5981 33.3311 58.3356 37.0686 58.3356 41.6644C58.3356 46.2602 54.5981 49.9977 50.0023 49.9977ZM49.9856 8.33105C30.9898 8.33105 16.6689 22.6602 16.6689 41.6644C16.6689 68.0227 36.7189 84.4143 45.3398 90.2351C46.7481 91.1893 48.369 91.6685 49.9856 91.6685C51.5981 91.6685 53.2106 91.1933 54.6189 90.2433C63.2523 84.4141 83.3314 68.0144 83.3314 41.6644C83.3356 22.6602 68.9981 8.33105 49.9856 8.33105ZM50.0065 83.3311C42.4898 78.2519 25.0023 64.0269 25.0023 41.6644C25.0023 27.1769 35.5065 16.6644 49.9856 16.6644C64.2481 16.6644 75.0023 27.4102 75.0023 41.6644C75.0023 64.0144 57.4898 78.2519 50.0065 83.3311Z" fill="white"/>
</svg>
