<svg width="80" height="80" viewBox="0 0 80 80" fill="none" xmlns="http://www.w3.org/2000/svg">
<path d="M59.1668 40.0003C59.1668 42.3003 57.3001 44.167 55.0001 44.167C52.7001 44.167 50.8334 42.3003 50.8334 40.0003C50.8334 37.7003 52.7001 35.8337 55.0001 35.8337C57.3001 35.8337 59.1668 37.7003 59.1668 40.0003ZM40.0001 35.8337C37.7001 35.8337 35.8334 37.7003 35.8334 40.0003C35.8334 42.3003 37.7001 44.167 40.0001 44.167C42.3001 44.167 44.1667 42.3003 44.1667 40.0003C44.1667 37.7003 42.3001 35.8337 40.0001 35.8337ZM25.0001 35.8337C22.7001 35.8337 20.8334 37.7003 20.8334 40.0003C20.8334 42.3003 22.7001 44.167 25.0001 44.167C27.3001 44.167 29.1667 42.3003 29.1667 40.0003C29.1667 37.7003 27.3001 35.8337 25.0001 35.8337ZM73.3334 40.0003C73.3334 58.3803 58.3801 73.3337 40.0001 73.3337C21.6201 73.3337 6.66675 58.3803 6.66675 40.0003C6.66675 21.6203 21.6201 6.66699 40.0001 6.66699C58.3801 6.66699 73.3334 21.6203 73.3334 40.0003ZM66.6668 40.0003C66.6668 25.297 54.7034 13.3337 40.0001 13.3337C25.2967 13.3337 13.3334 25.297 13.3334 40.0003C13.3334 54.7037 25.2967 66.667 40.0001 66.667C54.7034 66.667 66.6668 54.7037 66.6668 40.0003Z" fill="white"/>
</svg>
