<svg width="100" height="100" viewBox="0 0 100 100" fill="none" xmlns="http://www.w3.org/2000/svg">
<path d="M78.8228 18.6746L60.4935 10.5307C53.9226 7.61737 46.0728 7.61737 39.502 10.5307L21.1769 18.6746C13.3728 22.1381 8.33105 29.49 8.33105 37.3965V62.6082C8.33105 70.5147 13.3726 77.8666 21.1726 81.3301L39.506 89.4781C42.756 90.9202 46.3227 91.6457 49.8894 91.6582C49.9269 91.6582 49.9602 91.679 49.9977 91.679C50.0352 91.679 50.0686 91.6582 50.1061 91.6582C53.6727 91.6415 57.2393 90.9202 60.4935 89.4781L78.8228 81.3301C86.627 77.8666 91.6685 70.5147 91.6685 62.6082V37.3965C91.6643 29.49 86.6228 22.1381 78.8228 18.6746ZM57.1101 18.1496L75.4395 26.2935C76.0145 26.5478 76.5602 26.8393 77.0811 27.1478L68.7393 30.8572L41.5143 18.7581L42.8853 18.1496C47.3395 16.174 52.6601 16.174 57.1101 18.1496ZM31.2477 23.3218L58.4768 35.4209L54.5853 37.1507C51.8478 38.3719 48.1477 38.3719 45.4102 37.1507L22.9144 27.1518C23.4352 26.8392 23.981 26.5518 24.556 26.2976L31.2477 23.3218ZM24.556 73.7112C19.6893 71.5481 16.6644 67.2971 16.6644 62.6082V37.3965C16.6644 36.1461 16.8936 34.9336 17.302 33.7791L42.0268 44.7696C43.2268 45.3031 44.5101 45.7075 45.8351 45.9825V82.8015C44.831 82.5597 43.8351 82.2802 42.8935 81.8592L24.556 73.7112ZM83.3311 62.6082C83.3311 67.2971 80.306 71.5522 75.4351 73.7112L57.1101 81.8592C56.1643 82.276 55.1686 82.5597 54.1644 82.8015V45.9825C55.4894 45.7033 56.7727 45.3031 57.9727 44.7696L82.6978 33.7791C83.1061 34.9336 83.3351 36.1503 83.3351 37.3965L83.3311 62.6082Z" fill="white"/>
</svg>
