<svg width="65" height="65" viewBox="0 0 65 65" fill="none" xmlns="http://www.w3.org/2000/svg">
<path d="M55.9481 9.05266C53.6054 6.70995 50.4907 5.41797 47.1784 5.41797C43.8661 5.41797 40.7516 6.70995 38.4089 9.05266L9.88194 37.5794C8.67673 38.7846 7.89128 40.3096 7.61232 41.9887L5.4728 54.8206C5.25613 56.1206 5.6841 57.4559 6.61306 58.3849C7.38494 59.1567 8.43298 59.582 9.50819 59.582C9.73298 59.582 9.95503 59.563 10.1798 59.5251L23.012 57.3854C24.6912 57.1065 26.2159 56.321 27.4211 55.1158L55.9481 26.5891C58.2908 24.2463 59.5826 21.129 59.5826 17.8194C59.5826 14.5071 58.2908 11.3954 55.9481 9.05266ZM23.5916 51.2917C23.1907 51.6925 22.6816 51.9554 22.1237 52.0475L11.1224 53.881L12.9559 42.8797C13.048 42.3218 13.3107 41.8127 13.7115 41.4118L35.1236 19.9997L45.0037 29.8796L23.5916 51.2917ZM52.1185 22.7623L48.8332 26.0472L38.9532 16.1673L42.2385 12.8821C43.5574 11.5631 45.3151 10.8346 47.1784 10.8346C49.0444 10.8346 50.7995 11.5631 52.1185 12.8821C53.4374 14.201 54.1659 15.956 54.1659 17.822C54.1659 19.6881 53.4374 21.4433 52.1185 22.7623Z" fill="white"/>
</svg>
