<svg width="100" height="202" viewBox="0 0 100 202" fill="none" xmlns="http://www.w3.org/2000/svg">
<path d="M58.3333 8.33337H41.6666C30.1791 8.33337 20.8333 17.6792 20.8333 29.1667V70.8334C20.8333 82.3209 30.1791 91.6667 41.6666 91.6667H58.3333C69.8208 91.6667 79.1666 82.3209 79.1666 70.8334V29.1667C79.1666 17.6792 69.8208 8.33337 58.3333 8.33337ZM70.8333 70.8334C70.8333 77.725 65.225 83.3334 58.3333 83.3334H41.6666C34.775 83.3334 29.1666 77.725 29.1666 70.8334V29.1667C29.1666 22.275 34.775 16.6667 41.6666 16.6667H58.3333C65.225 16.6667 70.8333 22.275 70.8333 29.1667V70.8334ZM56.25 75C56.25 77.3042 54.3833 79.1667 52.0833 79.1667H47.9166C45.6166 79.1667 43.75 77.3042 43.75 75C43.75 72.6959 45.6166 70.8334 47.9166 70.8334H52.0833C54.3833 70.8334 56.25 72.6959 56.25 75Z" fill="#B3B3B3"/>
<path d="M74.2674 113.768L51.7674 136.268C51.2799 136.755 50.6399 137 49.9999 137C49.3599 137 48.72 136.755 48.2325 136.268L25.7325 113.768C24.755 112.79 24.755 111.21 25.7325 110.233C26.71 109.255 28.2899 109.255 29.2674 110.233L49.9999 130.965L70.7325 110.233C71.71 109.255 73.2899 109.255 74.2674 110.233C75.2449 111.21 75.2449 112.79 74.2674 113.768Z" fill="#A6A6A6"/>
<path d="M74.2674 138.768L51.7674 161.268C51.2799 161.755 50.6399 162 49.9999 162C49.3599 162 48.72 161.755 48.2325 161.268L25.7325 138.768C24.755 137.79 24.755 136.21 25.7325 135.233C26.71 134.255 28.2899 134.255 29.2674 135.233L49.9999 155.965L70.7325 135.233C71.71 134.255 73.2899 134.255 74.2674 135.233C75.2449 136.21 75.2449 137.79 74.2674 138.768Z" fill="#737373"/>
<path d="M74.2674 163.768L51.7674 186.268C51.2799 186.755 50.6399 187 49.9999 187C49.3599 187 48.72 186.755 48.2325 186.268L25.7325 163.768C24.755 162.79 24.755 161.21 25.7325 160.233C26.71 159.255 28.2899 159.255 29.2674 160.233L49.9999 180.965L70.7325 160.233C71.71 159.255 73.2899 159.255 74.2674 160.233C75.2449 161.21 75.2449 162.79 74.2674 163.768Z" fill="#404040"/>
</svg>
