<svg width="80" height="80" viewBox="0 0 80 80" fill="none" xmlns="http://www.w3.org/2000/svg">
<path d="M72.3563 67.6431L57.2263 52.5133C61.0363 47.6866 63.3329 41.6098 63.3329 34.9998C63.3329 19.3765 50.6229 6.6665 34.9996 6.6665C19.3763 6.6665 6.66626 19.3765 6.66626 34.9998C6.66626 50.6232 19.3763 63.3332 34.9996 63.3332C41.6129 63.3332 47.6863 61.0397 52.5129 57.2264L67.6429 72.3566C68.2929 73.0066 69.1463 73.3332 69.9996 73.3332C70.8529 73.3332 71.7063 73.0066 72.3563 72.3566C73.6596 71.0533 73.6596 68.9464 72.3563 67.6431ZM13.3329 34.9998C13.3329 23.0532 23.0529 13.3332 34.9996 13.3332C46.9463 13.3332 56.6663 23.0532 56.6663 34.9998C56.6663 46.9465 46.9463 56.6665 34.9996 56.6665C23.0529 56.6665 13.3329 46.9465 13.3329 34.9998Z" fill="#5C646B"/>
</svg>
