<svg width="80" height="80" viewBox="0 0 80 80" fill="none" xmlns="http://www.w3.org/2000/svg">
<path d="M36.6667 50.0028V60.0028C36.6667 61.8462 35.1734 63.3362 33.3334 63.3362C31.4934 63.3362 30.0001 61.8462 30.0001 60.0028V50.0028C30.0001 48.1595 31.4934 46.6695 33.3334 46.6695C35.1734 46.6695 36.6667 48.1595 36.6667 50.0028ZM46.6667 46.6695C44.8267 46.6695 43.3334 48.1595 43.3334 50.0028V60.0028C43.3334 61.8462 44.8267 63.3362 46.6667 63.3362C48.5067 63.3362 50.0001 61.8462 50.0001 60.0028V50.0028C50.0001 48.1595 48.5067 46.6695 46.6667 46.6695ZM68.0967 42.0727L65.5934 61.6894C64.7468 68.3261 59.0601 73.3329 52.3667 73.3329H27.7068C21.0368 73.3329 15.3534 68.3463 14.4868 61.733L11.9101 42.076C8.80341 40.376 6.66675 37.1195 6.66675 33.3362C6.66675 27.8228 11.1534 23.3362 16.6667 23.3362H21.4467L30.4768 8.28612C31.4234 6.70612 33.4668 6.19606 35.0501 7.14272C36.6301 8.08939 37.1401 10.1363 36.1934 11.7163L29.2234 23.3329H50.7834L43.8135 11.7163C42.8668 10.1363 43.3767 8.08939 44.9567 7.14272C46.5367 6.19606 48.5834 6.70612 49.5301 8.28612L58.5601 23.3362H63.3334C68.8467 23.3362 73.3334 27.8228 73.3334 33.3362C73.3334 37.1162 71.2 40.3727 68.0967 42.0727ZM13.3334 33.3362C13.3334 35.1762 14.8301 36.6695 16.6667 36.6695H63.3334C65.1701 36.6695 66.6667 35.1762 66.6667 33.3362C66.6667 31.4962 65.1701 30.0028 63.3334 30.0028H16.6667C14.8301 30.0028 13.3334 31.4962 13.3334 33.3362ZM61.2135 43.3362H18.8001L21.1 60.8695C21.53 64.1762 24.3735 66.6695 27.7068 66.6695H52.3667C55.7134 66.6695 58.5567 64.1663 58.9767 60.8496L61.2135 43.3362Z" fill="#5C646B"/>
</svg>
