<svg width="65" height="65" viewBox="0 0 65 65" fill="none" xmlns="http://www.w3.org/2000/svg">
<path d="M59.5806 24.3806C59.5806 24.0881 59.5345 23.7956 59.4425 23.5194L56.4959 14.6766C54.6488 9.13809 49.4866 5.41699 43.6502 5.41699H21.3497C15.5133 5.41699 10.3485 9.13809 8.50416 14.6766L5.55746 23.5194C5.46538 23.7983 5.41943 24.0881 5.41943 24.3806C5.42485 27.1025 6.46756 29.5619 8.12777 31.4659V48.7503C8.12777 54.7249 12.9865 59.5837 18.9611 59.5837H29.8675V48.7503C29.8675 47.2553 31.0835 46.042 32.5758 46.042C34.0681 46.042 35.2842 47.2553 35.2842 48.7503V59.5837H46.039C52.0136 59.5837 56.8723 54.7249 56.8723 48.7503V31.4659C58.5325 29.5619 59.5752 27.1025 59.5806 24.3806ZM13.6392 16.3912C14.7469 13.0653 17.8452 10.8337 21.3471 10.8337H43.6475C47.1494 10.8337 50.2478 13.0653 51.3555 16.3912L54.1504 24.7734C53.95 27.6198 51.6587 29.7946 48.7771 29.7946C46.3477 29.7946 43.8886 28.2104 43.1817 26.19C42.7998 25.1067 41.776 24.378 40.625 24.378H40.6142C39.4605 24.3834 38.434 25.1174 38.0629 26.2115C37.3777 28.2211 34.932 29.7946 32.5 29.7946C30.0679 29.7946 27.6251 28.2211 26.9372 26.2115C26.5634 25.1201 25.5396 24.3834 24.3859 24.378H24.375C23.2239 24.378 22.2002 25.1067 21.8184 26.19C21.1115 28.2104 18.6524 29.7946 16.223 29.7946C13.3386 29.7946 11.0473 27.6198 10.8468 24.7734L13.6392 16.3912ZM46.039 54.167H40.6954V48.7503C40.6954 44.2707 37.05 40.6253 32.5704 40.6253C28.0908 40.6253 24.4454 44.2707 24.4454 48.7503V54.167H18.9556C15.9684 54.167 13.539 51.7376 13.539 48.7503V34.8295C14.4029 35.0542 15.2885 35.2087 16.2202 35.2087C19.2833 35.2087 22.2517 33.9359 24.3588 31.9019C26.4604 33.9359 29.4234 35.2087 32.4947 35.2087C35.5659 35.2087 38.5315 33.9359 40.6304 31.9019C42.7402 33.9359 45.7085 35.2087 48.7716 35.2087C49.7033 35.2087 50.589 35.0542 51.453 34.8295V48.7503C51.4557 51.7376 49.0263 54.167 46.039 54.167Z" fill="white"/>
</svg>
