<svg width="80" height="85" viewBox="0 0 80 85" fill="none" xmlns="http://www.w3.org/2000/svg">
<path d="M58.6232 32.4873L56.6666 30.4086L56.6698 22.5389C58.9498 19.2522 59.9999 14.2584 59.9999 10.6247C59.9999 8.66967 58.5099 7.08301 56.6666 7.08301H23.3333C21.4899 7.08301 19.9999 8.66967 19.9999 10.6247C19.9999 14.2584 21.0499 19.2558 23.3333 22.5389V30.4086L21.3767 32.4873C16.19 37.9981 13.3333 45.3259 13.3333 53.1247C13.3333 54.0668 13.6834 54.9665 14.31 55.6287C14.9367 56.291 15.7833 56.6663 16.6666 56.6663H36.6666V74.3747C36.6666 76.3332 38.1566 77.9163 39.9999 77.9163C41.8433 77.9163 43.3333 76.3332 43.3333 74.3747V56.6663H63.3333C65.1766 56.6663 66.6666 55.0832 66.6666 53.1247C66.6666 45.3259 63.8098 37.9981 58.6232 32.4873ZM20.2632 49.5796C20.9499 45.0214 22.96 40.8211 26.09 37.4954L29.0232 34.3787C29.6498 33.7129 29.9999 32.8132 29.9999 31.8747L29.9967 21.2462C29.9967 20.3041 29.6466 19.4044 29.0199 18.7421C28.2232 17.8957 27.4999 16.1213 27.0733 14.1663H52.9266C52.4966 16.1213 51.7767 17.8956 50.9767 18.7456C50.35 19.4114 49.9999 20.3076 49.9999 21.2497V31.8747C49.9999 32.8168 50.35 33.7165 50.9767 34.3787L53.9098 37.4954C57.0398 40.8211 59.05 45.0249 59.7367 49.583L20.2632 49.5796Z" fill="white"/>
</svg>
