<svg width="65" height="65" viewBox="0 0 65 65" fill="none" xmlns="http://www.w3.org/2000/svg">
<path d="M56.8748 13.542H47.2358C46.0685 13.542 45.0367 12.8 44.6657 11.6922L43.8099 9.11913C43.0705 6.90642 41.004 5.41699 38.6721 5.41699H26.3248C23.9902 5.41699 21.9238 6.90669 21.1871 9.12211L20.3313 11.6896C19.963 12.7973 18.9283 13.542 17.761 13.542H8.12484C6.62984 13.542 5.4165 14.7526 5.4165 16.2503C5.4165 17.748 6.62984 18.9587 8.12484 18.9587H11.0092L13.0431 49.4707C13.4196 55.142 18.1674 59.5837 23.8521 59.5837H41.1502C46.835 59.5837 51.5827 55.1393 51.9592 49.4707L53.9931 18.9587H56.8748C58.3698 18.9587 59.5832 17.748 59.5832 16.2503C59.5832 14.7526 58.3698 13.542 56.8748 13.542ZM26.3276 10.8337L38.6749 10.831L39.5307 13.4038C39.5469 13.4525 39.5712 13.4932 39.5902 13.542H25.4148C25.431 13.4932 25.4582 13.4499 25.4744 13.4012L26.3276 10.8337ZM46.5535 49.1107C46.3639 51.9463 43.9913 54.167 41.1475 54.167H23.8495C21.0085 54.167 18.6332 51.9463 18.4436 49.1107L16.4366 18.9587H17.7639C18.0536 18.9587 18.3379 18.9207 18.6223 18.8909C18.7387 18.9071 18.8389 18.9587 18.9608 18.9587H46.0442C46.1633 18.9587 46.2662 18.9044 46.3827 18.8909C46.6671 18.9207 46.9488 18.9587 47.2413 18.9587H48.5683L46.5535 49.1107ZM40.6248 29.792V43.3337C40.6248 44.8314 39.4115 46.042 37.9165 46.042C36.4215 46.042 35.2082 44.8314 35.2082 43.3337V29.792C35.2082 28.2943 36.4215 27.0837 37.9165 27.0837C39.4115 27.0837 40.6248 28.2943 40.6248 29.792ZM29.7915 29.792V43.3337C29.7915 44.8314 28.5782 46.042 27.0832 46.042C25.5882 46.042 24.3748 44.8314 24.3748 43.3337V29.792C24.3748 28.2943 25.5882 27.0837 27.0832 27.0837C28.5782 27.0837 29.7915 28.2943 29.7915 29.792Z" fill="#161819"/>
</svg>
