<svg width="65" height="65" viewBox="0 0 65 65" fill="none" xmlns="http://www.w3.org/2000/svg">
<path d="M40.6249 24.3748H24.3749V18.9582C24.3749 14.4786 28.0203 10.8332 32.4999 10.8332C36.2862 10.8332 39.8178 13.4522 40.7115 16.9243C41.0826 18.3705 42.5533 19.2507 44.0077 18.8742C45.4566 18.5004 46.3287 17.0244 45.955 15.5754C44.441 9.69019 38.7833 5.4165 32.4999 5.4165C25.033 5.4165 18.9583 11.4913 18.9583 18.9582V25.523C14.1835 27.6193 10.8333 32.378 10.8333 37.9165V46.0415C10.8333 53.5084 16.908 59.5832 24.3749 59.5832H40.6249C48.0918 59.5832 54.1666 53.5084 54.1666 46.0415V37.9165C54.1666 30.4496 48.0918 24.3748 40.6249 24.3748ZM48.7499 46.0415C48.7499 50.5211 45.1045 54.1665 40.6249 54.1665H24.3749C19.8953 54.1665 16.2499 50.5211 16.2499 46.0415V37.9165C16.2499 33.4369 19.8953 29.7915 24.3749 29.7915H40.6249C45.1045 29.7915 48.7499 33.4369 48.7499 37.9165V46.0415ZM35.2083 40.6248V43.3332C35.2083 44.8309 33.9949 46.0415 32.4999 46.0415C31.0049 46.0415 29.7916 44.8309 29.7916 43.3332V40.6248C29.7916 39.1271 31.0049 37.9165 32.4999 37.9165C33.9949 37.9165 35.2083 39.1271 35.2083 40.6248Z" fill="#161819"/>
</svg>
