<svg width="80" height="80" viewBox="0 0 80 80" fill="none" xmlns="http://www.w3.org/2000/svg">
<path d="M40 43.3333C50.11 43.3333 58.3334 35.1066 58.3334 25C58.3334 14.8933 50.11 6.66663 40 6.66663C29.89 6.66663 21.6667 14.8933 21.6667 25C21.6667 35.1066 29.89 43.3333 40 43.3333ZM40 13.3333C46.4334 13.3333 51.6667 18.5666 51.6667 25C51.6667 31.4333 46.4334 36.6666 40 36.6666C33.5667 36.6666 28.3334 31.4333 28.3334 25C28.3334 18.5666 33.5667 13.3333 40 13.3333ZM66.6667 59.8901V63.26C66.6667 66.58 65.4533 69.7633 63.25 72.2233C62.59 72.9599 61.68 73.3333 60.7634 73.3333C59.9734 73.3333 59.1767 73.0533 58.5401 72.4833C57.1667 71.2566 57.0534 69.1466 58.2801 67.7766C59.3867 66.54 59.9968 64.9334 59.9968 63.26V59.8901C59.9968 55.2268 56.9066 51.1934 52.4866 50.0834C51.8466 49.9234 51.1634 50.0032 50.6167 50.3165C44.0134 53.9899 35.9533 53.9698 29.4133 50.3365C28.8366 50.0065 28.1567 49.9234 27.5167 50.0834C23.0867 51.1934 20 55.2268 20 59.8901V63.26C20 64.9367 20.6101 66.54 21.7168 67.7766C22.9434 69.1466 22.8267 71.2566 21.4567 72.4833C20.0834 73.7133 17.9768 73.5933 16.7501 72.2233C14.5468 69.7633 13.3334 66.58 13.3334 63.26V59.8901C13.3334 52.1668 18.4968 45.4732 25.8901 43.6165C28.1801 43.0332 30.6601 43.3701 32.6868 44.5267C37.1835 47.0201 42.7866 47.0401 47.3466 44.5068C49.3433 43.3635 51.8233 43.0299 54.1167 43.6132C61.5033 45.4732 66.6667 52.1634 66.6667 59.8901Z" fill="#5C646B"/>
</svg>
